<?xml version="1.0" encoding="utf-8"?>
<!-- Generator: Adobe Illustrator 18.1.1, SVG Export Plug-In . SVG Version: 6.00 Build 0)  -->
<svg version="1.1" id="Layer_1" xmlns="http://www.w3.org/2000/svg" xmlns:xlink="http://www.w3.org/1999/xlink" x="0px" y="0px"
	 viewBox="0 0 2000 2500" enable-background="new 0 0 2000 2500" xml:space="preserve">
<title>interlock-filled</title>
<path fill="#1A237E" d="M975.7,1431.1h59.5l-29.7,51.4L975.7,1431.1z M704.3,1177h330.8L931.9,998.6H601.1L704.3,1177z M850.8,960.8
	h59.5l-29.7-51.4L850.8,960.8z M1504.9,1558.1l-29.7,51.4h59.5L1504.9,1558.1z M1390.8,1323l-165.4,286.5h205.9l165.4-286.5H1390.8z
	 M880.5,833.8l271.4,470.3L1027,1520.3l51.4,89.2h103.2l176.8-305.4L880.5,477L601.1,960.8H807L880.5,833.8z M568.6,1017.6
	l-477.8,827L194.1,2023l477.3-827L568.6,1017.6z M1596.8,1285.1l-477.3-827H913.5l477.3,827H1596.8z M850.8,2041.9h955.1
	l103.2-178.4H954.1L850.8,2041.9z M1526.5,1520.3l73.5,127h-543.2l-124.9-216.2H829.2l-51.4,89.2l176.2,305.4h955.1l-279.5-483.8
	L1526.5,1520.3z M755.7,1558.1l-103.2,178.4L817.8,2023l103.2-178.4L755.7,1558.1z M535.7,1863.5L807,1393.2h249.7l51.4-89.2
	l-51.4-89.2H704.3l-477.3,827h558.4l-103.2-178.4H535.7z M630.8,1774.3l-29.7,51.4h59.5L630.8,1774.3z"/>
</svg>
