<?xml version="1.0" encoding="utf-8"?>
<!-- Generator: Adobe Illustrator 18.1.1, SVG Export Plug-In . SVG Version: 6.00 Build 0)  -->
<svg version="1.1" id="Layer_1" xmlns="http://www.w3.org/2000/svg" xmlns:xlink="http://www.w3.org/1999/xlink" x="0px" y="0px"
	 viewBox="0 0 2000 2500" enable-background="new 0 0 2000 2500" xml:space="preserve">
<path fill="#1976D2" d="M1000.3,2503.7c-0.6,0-1.3,0-1.9,0c-12-2.2-24-0.9-36.1-0.8c-18.7,0.1-37.4-1.3-56.1,0.8c-0.6,0-1.3,0-1.9,0
	c-11.4-6.9-15.6-19.1-21.8-29.7c-8.3-14-16.6-28.1-24.5-42.3c-6.1-10.9-9.2-11-15.4-0.5c-11.4,19.3-22.6,38.6-33.6,58.1
	c-3.2,5.7-7,10.5-12.1,14.4c-0.6,0-1.3,0-1.9,0c-8.8-2.1-17.6-0.8-26.5-0.9c-21.9-0.2-43.8-0.1-65.7-0.1c-8.8-2.1-3.8-7.4-2-10.9
	c7.6-14.4,15.9-28.5,24.1-42.6c66.8-115.5,133.4-231,200-346.6c8.9-15.5,18.2-30.9,26.8-46.6c5.5-10,12.7-14.4,24.6-14.4
	c167.6,0.3,335.3-0.1,502.9,0.6c19.9,0.1,31.3-6.2,40.9-23.7c27-49,55.3-97.3,83.5-145.7c1.8-3,3.3-6.2,5.1-9.2
	c4.9-8,4.1-15.4-0.5-23.5c-23.8-41.7-47.8-83.2-71.8-124.8c-7.8-13.6-15.7-27.1-23.3-40.8c-5-9.1-12.2-13.1-22.6-13.1
	c-244.7,0.1-489.5,0.1-734.2,0c-11.4,0-18.4,5.2-23.8,14.6c-29.5,51.7-59.4,103.1-89.1,154.6c-53.4,92.5-106.7,185.1-160.2,277.6
	c-52.3,90.6-104.6,181.2-156.8,271.8c-21.4,37.1-42.8,74.3-64.3,111.3c-2.8,4.8-6.4,8.6-10.5,12.1c-0.6,0-1.3,0-1.9,0
	c-9-2.2-18.2-0.8-27.3-0.9c-21.2-0.2-42.4-0.1-63.6-0.1c-8.2-2.6-8.6-3.5-3.6-11.9c14.4-24.6,28.5-49.3,42.7-74
	c59.2-102.5,118.3-205,177.4-307.6c48.3-83.7,96.6-167.3,145-251c44.5-77,88.8-154.1,133.4-231c4.5-7.8,4.5-14.7,0.1-22.5
	c-49.1-85.1-98.1-170.2-147-255.3c-18.7-32.4-37.6-64.7-55.9-97.4c-0.3-0.6-0.6-1.2-0.9-1.7c-2.5-3.5-3.6-9.1-9-8.9
	c-4.8,0.2-6,5.2-8.1,8.7c-14.6,25.2-29.1,50.4-43.7,75.6c-64.8,112.2-129.6,224.4-194.4,336.6c-55,95.3-110.1,190.6-165.2,285.8
	c-5.6,9.7-11,19.5-17.1,28.9c-2.4,3.7-4.6,8.4-10.4,4.2c0-659.8,0-1319.7,0-1979.5c398.1,0,796.2,0,1194.2,0
	c6.2,3.8,10.3,9.4,13.9,15.6c41.7,72.7,83.7,145.2,125.6,217.8c38.8,67.3,77.6,134.6,116.5,201.9c45,77.8,89.8,155.7,134.7,233.5
	c44.7,77.6,89.6,155.1,134.3,232.7c56.5,98.1,113.2,196.1,169.7,294.2c33.9,58.7,67.6,117.5,101.8,176.1c4.8,8.2,6.7,17.2,9.8,26
	c0,55,0,110.1,0,165.1c-5.3,3.7-6.7-1.2-8.5-4.2c-13.3-22.6-26.3-45.4-39.5-68.1c-46.6-80.6-93.1-161.2-139.7-241.8
	c-64-110.8-128.1-221.6-192-332.4C1558.3,805.9,1493.7,694,1429,582.1c-53-91.7-106-183.3-159-275c-46-79.5-91.8-159-137.8-238.5
	c-1.1-1.9-2-4-3.4-5.8c-4.1-5.2-7.6-5.3-11.3,0.3c-4.2,6.4-7.7,13.3-11.6,19.9c-78.8,136.2-157.3,272.6-236.2,408.8
	c-79.1,136.8-158,273.7-237.3,410.4c-33.5,57.8-66.7,115.9-100.4,173.6c-1.8,3-3.5,6.1-5.1,9.3c-4.1,8-2.4,10.8,6.9,11.4
	c1.9,0.1,3.8,0.1,5.8,0.1c133.7,0,267.5-0.1,401.2,0.2c13.1,0,21.2-4.4,27.7-15.9c47.5-83.7,96.3-166.7,144.3-250.2
	c0.5-0.8,0.9-1.7,1.5-2.5c6.6-10,11-10.2,17.3-0.2c5.4,8.7,10.2,17.7,15.4,26.6c51.6,89.1,103,178.4,154.5,267.6
	c55,95.3,110,190.6,165,285.9c62.6,108.6,125.3,217.2,188,325.8c20,34.6,39.9,69.3,60.1,103.8c5.6,9.5,6.4,17.1,0.5,27.2
	c-64.1,110-127.5,220.4-191.3,330.6c-22.1,38.2-43.9,76.6-66.3,114.6c-5.9,9.9-6,18.4-0.1,28.5c28.3,48.7,56.5,97.4,84.4,146.3
	c1.6,2.8,3.1,5.6,4.5,8.5c2.4,5.2,0.6,7.9-5,8.4c-26.8,0-53.6,0-80.4,0c-3.1,0-6.4-0.9-9.3,0.9c-0.6,0-1.3,0-1.9,0
	c-5.9-3.3-9.2-8.9-12.5-14.6c-34.1-58.6-67.8-117.4-101.8-176.1c-31.4-54.3-62.9-108.4-93.8-162.9c-6.4-11.3-14.3-16.3-27.6-16.2
	c-60.8,0.5-121.5,0.4-182.3,0c-12.4-0.1-20.2,4.6-26.2,15.3c-30.3,54.1-61.6,107.7-92.7,161.4c-6.3,10.9-5.8,19.8,0.3,30.3
	c29.2,50,58,100.1,86.8,150.4C1002.2,2495.2,1005.9,2499.3,1000.3,2503.7z"/>
<path fill="#1A237E" d="M1544.2,2501.5c-1.1-4.1-3.6-7.5-5.6-11.1c-29.5-51.3-59.1-102.6-88.6-153.9c-1.8-3-3.5-6.1-4.9-9.3
	c-0.5-1-0.4-2.6,0-3.7c1.1-2.6,2.5-5.2,4-7.7c14.5-25.2,29.1-50.4,43.6-75.7c62.4-108.1,124.8-216.1,187.2-324.2
	c10.2-17.7,20.5-35.5,30.7-53.2c1.3-2.2,2.5-4.5,3.8-6.7c1.4-2.4,1.4-4.8,0-7.3c-1.1-1.9-2.2-3.9-3.3-5.9
	c-54.8-95.1-109.7-190.1-164.5-285.2c-44.5-77-88.9-154.1-133.4-231.1c-66.5-115.3-133-230.6-199.6-345.9
	c-27.5-47.7-55-95.3-82.5-143c-1.8-3-3.6-6.1-5.5-9c-1.3-2-3.5-2.1-4.7-0.3c-1.4,2.1-2.8,4.2-4.1,6.5c-6.8,11.6-13.5,23.3-20.2,34.9
	c-42,72.6-84,145.1-125.9,217.7c-1.4,2.5-2.9,5-4.4,7.5c-3.9,6.4-4.4,6.7-12.4,6.9c-1.9,0-3.8,0-5.8,0c-140.5,0-280.9,0-421.4,0
	c-3.5,0-7-0.3-10.5-0.6c-1-0.1-2.1-2.1-1.7-3.1c0.8-1.8,1.5-3.5,2.4-5.2c3.9-7,8-13.9,12-20.8c69-119.4,137.9-238.8,206.9-358.3
	c81.6-141.3,163.3-282.6,244.9-423.9c44.3-76.7,88.6-153.5,133-230.3c1.8-3,3.5-6.1,5.4-9.1c0.7-1.1,1.5-2,2.3-3
	c0.7-0.9,2.8-0.9,3.5,0c1,1.3,2,2.5,2.8,3.8c3.1,5.2,6.1,10.5,9.2,15.8c77.5,134.1,155,268.2,232.4,402.3
	c85.6,148.2,171.3,296.4,256.9,444.7c83.1,143.8,166.2,287.6,249.2,431.4c40.2,69.5,80.3,139.1,120.6,208.6
	c2.1,3.6,3.6,7.5,6.5,10.6c0,191.4,0,382.7,0,574.1c-3.6,22.4-17.4,40-28.3,58.9c-55.3,95.8-110.9,191.6-166.2,287.4
	c-3.6,6.2-7.2,12.2-12.9,16.6c-0.6,0.6-1.3,1.3-1.9,1.9c-82.6,0-165.1,0-247.7,0C1544.5,2503.4,1544,2502.7,1544.2,2501.5z"/>
<path fill="#1A237E" d="M251.5,2503.7c-0.2-1.6,0-3.2,0.7-4.7c1.5-2.8,3-5.6,4.6-8.4c64.1-111.1,128.2-222.2,192.4-333.3
	c76.3-132.2,152.5-264.4,228.8-396.5c17.7-30.8,35.5-61.5,53.3-92.2c1.6-2.8,3.3-5.5,5-8.2c1.1-1.7,2.7-2.7,4.8-2.8
	c1.3-0.1,2.6-0.2,3.8-0.2c2.9,0,5.8,0,8.6,0c246.3,0,492.7,0,739,0c4.2,0,8.3,0.1,12.5,0.3c2,0.1,3.7,1.1,4.8,2.7
	c1.8,2.7,3.4,5.4,5,8.2c28.9,50.2,57.8,100.4,86.7,150.5c4.6,8,9.3,16.1,13.9,24.1c1.3,2.2,2.5,4.5,3.6,6.8c1,1.8,0.8,3.7-0.1,5.5
	c-1.2,2.3-2.4,4.5-3.6,6.8c-33.5,58.2-67,116.5-100.6,174.7c-1.4,2.5-2.9,4.9-4.6,7.3c-1.1,1.6-2.7,2.7-4.8,2.9
	c-1.9,0.2-3.8,0.3-5.7,0.4c-3.8,0.1-7.7,0-11.5,0c-169.2,0-338.5,0-507.7,0c-4.5,0-9,0.1-13.4,0.2c-3.1,0.1-5.4,1.6-7,4.3
	c-1.3,2.2-2.6,4.4-3.9,6.6c-73,126.4-146.1,253-219.1,379.7c-10.4,18-20.8,36-31.2,54c-1.7,3-3.2,6.3-4.7,9.4
	c1.3,0.8,1.2,1.4-0.3,1.9C551,2503.7,401.3,2503.7,251.5,2503.7z"/>
<path fill="#1A237E" d="M2002.6,1399.7c-2.1-1.2-2.7-3.5-3.8-5.4c-20.6-35.7-41.3-71.5-61.9-107.2c-54-93.6-108.1-187.3-162.1-280.9
	c-69-119.4-137.9-238.8-206.8-358.2c-70.5-122.2-141-244.3-211.5-366.5c-52-90-103.9-180.1-155.9-270.1c-1.7-3-3.9-5.9-4.5-9.5
	c149.8,0,299.5,0,449.3,0c6.8,2.3,10.5,7.7,13.9,13.6c37,63.9,73.7,128,110.7,191.9c41.6,71.9,83.1,144,124.7,216
	c32.4,56.2,64.9,112.4,97.4,168.6c5.2,8.9,8,18.4,10.5,28.2C2002.6,880,2002.6,1139.8,2002.6,1399.7z"/>
<path fill="#1A237E" d="M1.9,1981.4c2.1-0.9,3.8-2.4,4.9-4.4c1.8-3,3.6-6.1,5.4-9.1c38.9-67.3,77.8-134.6,116.7-201.9
	c69.6-120.5,139.3-241,208.9-361.4c31.8-55.1,63.7-110.2,95.5-165.4c1.4-2.5,2.9-5,4.4-7.4c0.5-0.8,1.2-1.5,1.8-2.2
	c0.7-0.8,2.8-0.8,3.4,0.2c1.9,3,3.8,5.9,5.6,8.9c16.6,28.8,33.2,57.7,49.8,86.5c53,92,106,184.1,159,276.1c2.1,3.6,4.1,7.2,6.2,10.9
	c1.4,2.4,1.5,4.8,0.2,7.3c-1.1,2-2.2,3.9-3.3,5.9c-26.5,46-53.1,92-79.6,138c-46.2,80.1-92.4,160.1-138.6,240.2
	c-57.4,99.5-114.8,198.9-172.2,298.4c-36.6,63.4-73.2,126.9-109.8,190.3c-1.8,3-3.8,5.9-4.6,9.5c0.1,1.3-1.3,1.2-1.8,2
	c-50.6,0-101.1,0-151.7,0C1.9,2329.6,1.9,2155.5,1.9,1981.4z"/>
<path fill="#1A237E" d="M1000.3,2503.7c-0.2-2.3-1.4-4.2-2.5-6.2c-2.7-4.7-5.4-9.4-8.1-14.1c-28.3-49-56.6-98-84.8-147.1
	c-7-12.1-7-9.7-0.2-21.5c33.1-57.7,66.4-115.3,99.5-173c1.4-2.5,2.9-4.9,4.4-7.4c1.6-2.7,4-4,7.1-4.1c1.6-0.1,3.2-0.2,4.8-0.2
	c2.2,0,4.5,0,6.7,0c64,0,127.9,0,191.9,0c3.8,0,7.7,0.1,11.5,0.2c3.1,0.1,5.5,1.3,7.2,4.1c1.5,2.5,3,4.9,4.4,7.4
	c67.2,116.3,134.4,232.6,201.5,348.9c1.4,2.5,2.8,5,4.2,7.5c0.9,1.7,1.6,3.5,1.7,5.5C1299.8,2503.7,1150.1,2503.7,1000.3,2503.7z"/>
<path fill="#1976D2" d="M2002.6,620.2c-6.4-11.1-12.9-22.1-19.3-33.2c-73.7-127.7-147.4-255.5-221.1-383.2
	c-36.9-64-73.9-128-110.8-192c-1.9-3.3-3.9-6.6-5.9-9.9c119,0,238.1,0,357.1,0C2002.6,208,2002.6,414.1,2002.6,620.2z"/>
<path fill="#1976D2" d="M1793.4,2501.8c0.8-3.5,2.9-6.4,4.6-9.4c17.4-30.2,34.9-60.3,52.3-90.5c47.2-81.6,94.4-163.2,141.7-244.8
	c3.5-6.1,7-12.2,10.5-18.3c0,55,0,110.1,0,165.1c-4.4,23.3-18.9,41.7-30.1,61.7c-23.3,41.4-47.5,82.2-71.1,123.5
	c-3.2,5.6-7.1,10.5-12.1,14.6c-0.6,0-1.3,0-1.9,0c-8.1-2-16.4-0.7-24.6-0.9C1839.7,2502.1,1816.5,2503.9,1793.4,2501.8z"/>
<path fill="#1A237E" d="M1889.3,2503.7c-0.3-2,0.2-3.8,1.2-5.5c1.5-2.8,3.1-5.6,4.7-8.4c33.1-57.3,66.1-114.5,99.2-171.8
	c2.7-4.7,5.5-9.3,8.2-14c0,66.6,0,133.1,0,199.7C1964.8,2503.7,1927,2503.7,1889.3,2503.7z"/>
<path fill="#1A237E" d="M796.8,2503.7c0.3-1.5,0.3-3.2,0.9-4.6c1.2-2.6,2.7-5.1,4.1-7.6c14-24.3,28.1-48.6,42.2-72.9
	c1.4-2.5,2.6-5.1,4.8-7.1c0.5-0.5,2.2-0.5,2.7,0.1c1,1.2,2.1,2.4,2.9,3.8c3.9,6.6,7.7,13.2,11.5,19.9c11.2,19.3,22.3,38.7,33.5,58
	c1.9,3.3,4.1,6.5,4.9,10.3C868.5,2503.7,832.6,2503.7,796.8,2503.7z"/>
<path fill="#818181" d="M153.6,2503.7c0.6-0.7,1.2-1.3,1.8-2c25.8,0,51.5,0,77.3,0c2.5,0,5.1,0,7.6,0.1c3.2,0,6.3,0.5,9.3,1.9
	C217.6,2503.7,185.6,2503.7,153.6,2503.7z"/>
<path fill="#818181" d="M700.8,2503.7c-0.1-0.7,0-1.3,0.3-1.9c26.6,0,53.1,0,79.7,0c4.8,0,9.6-0.2,14.1,1.9
	C763.5,2503.7,732.2,2503.7,700.8,2503.7z"/>
<path fill="#818181" d="M1544.2,2501.5c0.5,0.7,0.9,1.4,1.4,2.2c-31.4,0-62.7,0-94.1,0c3.9-1.9,8-1.9,12.2-1.9c10.9,0,21.7,0,32.6,0
	C1512.3,2501.7,1528.2,2501.6,1544.2,2501.5z"/>
<path fill="#818181" d="M1793.4,2501.8c26,0,52,0,78.1,0c2.5,0,5.1,0,7.6,0.1c2.9,0.1,5.7,0.6,8.3,1.8c-31.4,0-62.7,0-94.1,0
	C1793.3,2503,1793.3,2502.4,1793.4,2501.8z"/>
<path fill="#818181" d="M906.2,2503.7c3.9-1.9,8-1.9,12.2-1.9c11.5,0,22.9,0,34.4,0c11.1,0,22.3,0,33.4,0c4.2,0,8.3,0.1,12.2,1.9
	C967.7,2503.7,937,2503.7,906.2,2503.7z"/>
<path fill="#1A237E" d="M1098.2,1574.5c-114.9,0-229.7,0-344.6,0c-4.2,0-8.3-0.1-12.5-0.2c-2.1-0.1-3.7-1-4.8-2.7
	c-1.7-2.7-3.4-5.4-5-8.2c-31.4-54.3-62.8-108.5-94.2-162.8c-38.9-67.3-77.9-134.6-116.8-201.9c-1.9-3.3-3.7-6.7-5.4-10.1
	c-0.7-1.5,0.4-3.4,2-3.6c1.3-0.2,2.5-0.4,3.8-0.4c3.2-0.1,6.4-0.1,9.6-0.1c229.4,0,458.8,0,688.2,0c4.2,0,8.3,0.1,12.5,0.1
	c3.2,0,5.4,1.5,7,4.2c1.2,1.9,2.3,3.8,3.5,5.8c49.5,85.6,99.1,171.1,148.6,256.7c21.3,36.8,42.6,73.7,63.9,110.5
	c1.8,3,3.3,6.2,4.9,9.3c0.5,1.1-0.5,2.8-1.6,3c-1.3,0.2-2.5,0.4-3.8,0.4c-3.5,0.1-7,0.1-10.6,0.1
	C1327.9,1574.5,1213.1,1574.5,1098.2,1574.5z"/>
<path fill="#1A237E" d="M1395.9,2130c17.3,0,34.5,0,51.8,0c3.2,0,6.3,0.4,9.5,0.7c1.2,0.1,2.2,1.9,1.7,3c-1.1,2.3-2.2,4.6-3.4,6.8
	c-6.8,11.9-13.7,23.8-20.6,35.7c-10.4,18-20.8,35.9-31.2,53.9c-1.4,2.5-2.9,4.9-4.5,7.4c-1.5,2.4-3.8,2.4-5.4,0.1
	c-1.4-2.1-2.8-4.3-4-6.5c-17.1-29.6-34.3-59.2-51.4-88.8c-1.6-2.8-2.9-5.7-4.3-8.5c-0.5-1,0.5-2.7,1.7-3s2.5-0.6,3.7-0.7
	c2.9-0.1,5.7-0.1,8.6-0.1C1364,2130,1380,2130,1395.9,2130z"/>
<path fill="#1A237E" d="M1123.3,1101.9c-16.6,0-33.3,0-49.9,0c-2.9,0-5.8-0.1-8.6-0.2c-3.3-0.2-4.7-2.3-3.3-5.2
	c0.8-1.7,1.7-3.4,2.7-5.1c17.8-30.7,35.5-61.4,53.3-92.1c1-1.7,2-3.3,3-4.9c1.6-2.4,3.7-2.5,5.3-0.1c1.1,1.6,2.1,3.2,3,4.9
	c17.6,30.4,35.3,60.9,52.9,91.3c1.3,2.2,2.4,4.5,3.5,6.8c0.9,1.9-0.4,4-2.5,4.2c-3.2,0.2-6.4,0.4-9.6,0.4
	C1156.5,1101.9,1139.9,1101.9,1123.3,1101.9z"/>
</svg>
